<svg width="240" height="174" viewBox="0 0 240 174" fill="none" xmlns="http://www.w3.org/2000/svg" role="img" aria-label="BlitzReels icon">
<mask id="mask0_4033_488" style="mask-type:alpha" maskUnits="userSpaceOnUse" x="0" y="0" width="240" height="174">
<path d="M239.358 0H1.61019e-05L144.04 173.763H216.494C229.121 173.763 239.358 163.526 239.358 150.899V0Z" fill="url(#paint0_linear_4033_488)"/>
</mask>
<g mask="url(#mask0_4033_488)">
<path d="M239.358 0H1.61019e-05L144.04 173.763H216.494C229.121 173.763 239.358 163.526 239.358 150.899V0Z" fill="url(#paint1_linear_4033_488)"/>
<path d="M275.782 0H36.4241L182.12 173.763H252.918C265.545 173.763 275.782 163.526 275.782 150.899V0Z" fill="url(#paint2_linear_4033_488)"/>
<path d="M262.773 -88.0391H23.4155L169.111 85.7238H239.91C252.537 85.7238 262.773 75.4874 262.773 62.8602V-88.0391Z" fill="url(#paint3_linear_4033_488)"/>
</g>
<defs>
<linearGradient id="paint0_linear_4033_488" x1="239.358" y1="0" x2="83.0826" y2="136.936" gradientUnits="userSpaceOnUse">
<stop stop-color="#004E30"/>
<stop offset="1" stop-color="#17FFA6"/>
</linearGradient>
<linearGradient id="paint1_linear_4033_488" x1="239.358" y1="0" x2="83.0826" y2="136.936" gradientUnits="userSpaceOnUse">
<stop stop-color="#004E30"/>
<stop offset="1" stop-color="#17FFA6"/>
</linearGradient>
<linearGradient id="paint2_linear_4033_488" x1="275.782" y1="0" x2="119.507" y2="136.936" gradientUnits="userSpaceOnUse">
<stop stop-color="#004E30"/>
<stop offset="1" stop-color="#17FFA6"/>
</linearGradient>
<linearGradient id="paint3_linear_4033_488" x1="262.773" y1="-88.0391" x2="106.498" y2="48.8965" gradientUnits="userSpaceOnUse">
<stop stop-color="#004E30"/>
<stop offset="1" stop-color="#17FFA6"/>
</linearGradient>
</defs>
</svg>
